<mxfile host="app.diagrams.net" modified="2021-01-13T12:52:39.661Z" agent="5.0 (Macintosh; Intel Mac OS X 10_15_6) AppleWebKit/605.1.15 (KHTML, like Gecko) Version/14.0.2 Safari/605.1.15" etag="gc74u_STg_TRAYCTskbY" version="14.1.9" type="github">
  <diagram id="CS8AN4Y_euGkDVP1oa0P" name="Page-1">
    <mxGraphModel dx="682" dy="538" grid="1" gridSize="10" guides="1" tooltips="1" connect="1" arrows="1" fold="1" page="1" pageScale="1" pageWidth="827" pageHeight="1169" math="0" shadow="0">
      <root>
        <mxCell id="0" />
        <mxCell id="1" parent="0" />
        <mxCell id="1lg9t0cI-_Qf1DU-k6TU-6" style="edgeStyle=none;rounded=0;orthogonalLoop=1;jettySize=auto;html=1;exitX=0.5;exitY=1;exitDx=0;exitDy=0;exitPerimeter=0;entryX=0.41;entryY=-0.02;entryDx=0;entryDy=0;entryPerimeter=0;" edge="1" parent="1" source="1lg9t0cI-_Qf1DU-k6TU-2" target="1lg9t0cI-_Qf1DU-k6TU-3">
          <mxGeometry relative="1" as="geometry" />
        </mxCell>
        <mxCell id="1lg9t0cI-_Qf1DU-k6TU-2" value="" style="strokeWidth=2;html=1;shape=mxgraph.flowchart.start_2;whiteSpace=wrap;" vertex="1" parent="1">
          <mxGeometry x="130" y="60" width="100" height="100" as="geometry" />
        </mxCell>
        <mxCell id="1lg9t0cI-_Qf1DU-k6TU-3" value="" style="rounded=1;whiteSpace=wrap;html=1;absoluteArcSize=1;arcSize=14;strokeWidth=2;" vertex="1" parent="1">
          <mxGeometry x="140" y="190" width="190" height="100" as="geometry" />
        </mxCell>
        <mxCell id="1lg9t0cI-_Qf1DU-k6TU-4" value="" style="rounded=1;whiteSpace=wrap;html=1;absoluteArcSize=1;arcSize=14;strokeWidth=2;" vertex="1" parent="1">
          <mxGeometry x="140" y="320" width="100" height="100" as="geometry" />
        </mxCell>
      </root>
    </mxGraphModel>
  </diagram>
</mxfile>
